<?xml version="1.0" encoding="utf-8"?>
<!-- Generator: Adobe Illustrator 21.0.0, SVG Export Plug-In . SVG Version: 6.00 Build 0)  -->
<svg version="1.1" id="图层_1" xmlns="http://www.w3.org/2000/svg" xmlns:xlink="http://www.w3.org/1999/xlink" x="0px" y="0px"
	 viewBox="0 0 1024 1024" style="enable-background:new 0 0 1024 1024;" xml:space="preserve">
<style type="text/css">
	.st0{opacity:0.26;}
	.st1{fill:#2DFFE4;}
	.st2{fill:#00FFF0;}
	.st3{fill:none;stroke:#2DFFE4;stroke-miterlimit:10;}
	.st4{fill:none;stroke:#00FFF0;stroke-miterlimit:10;}
</style>
<g class="st0">
	<g>
		<g>
			<g>
				<path class="st1" d="M14.3,187c0,0,183.6,291.3,232.5,650H299c0,0-55-368.2-223-650H14.3z M151.9,187
					c0,0,153.7,267.1,208.8,645.3h650c0,0-23.7-298.9-156.6-645.3H151.9z"/>
			</g>
		</g>
		<g>
			<g>
				<path class="st2" d="M14.3,187c0,0,183.6,291.3,232.5,650H299c0,0-55-368.2-223-650H14.3z M151.9,187
					c0,0,153.7,267.1,208.8,645.3h650c0,0-23.7-298.9-156.6-645.3H151.9z"/>
			</g>
		</g>
	</g>
	<g>
		<g>
			<g>
				<path class="st2" d="M14.3,187c0,0,183.6,291.3,232.5,650H299c0,0-55-368.2-223-650H14.3z M151.9,187
					c0,0,153.7,267.1,208.8,645.3h650c0,0-23.7-298.9-156.6-645.3H151.9z"/>
			</g>
		</g>
		<g>
			<g>
				<path class="st2" d="M14.3,187c0,0,183.6,291.3,232.5,650H299c0,0-55-368.2-223-650H14.3z M151.9,187
					c0,0,153.7,267.1,208.8,645.3h650c0,0-23.7-298.9-156.6-645.3H151.9z"/>
			</g>
		</g>
	</g>
</g>
<g>
	<g>
		<g>
			<g>
				<path class="st3" d="M14.3,187c0,0,183.6,291.3,232.5,650H299c0,0-55-368.2-223-650H14.3z M151.9,187
					c0,0,153.7,267.1,208.8,645.3h650c0,0-23.7-298.9-156.6-645.3H151.9z"/>
			</g>
		</g>
		<g>
			<g>
				<path class="st4" d="M14.3,187c0,0,183.6,291.3,232.5,650H299c0,0-55-368.2-223-650H14.3z M151.9,187
					c0,0,153.7,267.1,208.8,645.3h650c0,0-23.7-298.9-156.6-645.3H151.9z"/>
			</g>
		</g>
	</g>
	<g>
		<g>
			<g>
				<path class="st4" d="M14.3,187c0,0,183.6,291.3,232.5,650H299c0,0-55-368.2-223-650H14.3z M151.9,187
					c0,0,153.7,267.1,208.8,645.3h650c0,0-23.7-298.9-156.6-645.3H151.9z"/>
			</g>
		</g>
		<g>
			<g>
				<path class="st4" d="M14.3,187c0,0,183.6,291.3,232.5,650H299c0,0-55-368.2-223-650H14.3z M151.9,187
					c0,0,153.7,267.1,208.8,645.3h650c0,0-23.7-298.9-156.6-645.3H151.9z"/>
			</g>
		</g>
	</g>
</g>
</svg>
